#!OML:ASF H:\Not Pregnant\Project 1\Capture day 1\Session 1\non-pregnant.ASF
:FULLY-SPECIFIED
:DEGREES
2059
root -4.11359 15.4947 43.697 -685.401 -81.9262 696.953
lowerback -0.913743 -1.05433 0.79619
upperback -9.15957 -1.61688 0.997438
thorax -9.11475 -0.939638 0.743909
lowerneck 17.4966 -9.94478 -29.4229
upperneck -4.66193 -20.4312 39.6706
head 3.73798 -12.4871 19.0836
rclavicle -4.77083e-015 1.15295e-014
rhumerus -52.5865 -27.6052 -58.1438
rradius 24.3851
rwrist 33.8434
rhand -1.58247 6.81286
rfingers 7.12502
rthumb 24.0738 -21.697
lclavicle -4.77083e-015 1.15295e-014
lhumerus -39.4561 -8.21942 75.6938
lradius 32.2907
lwrist 30.7012
lhand -26.6561 -13.2937
lfingers 7.12502
lthumb -0.0879107 16.686
rfemur -28.2016 -0.671056 22.8744
rtibia 45.2016
rfoot -25.8271 3.34617
rtoes -27.4397
lfemur -27.2465 -0.0938572 -14.2419
ltibia 35.1672
lfoot -23.3858 -11.1314
ltoes -23.3386
2060
root -4.11292 15.4831 43.7396 -685.113 -81.8464 696.673
lowerback -1.04843 -1.02547 0.873453
upperback -9.15785 -1.5789 0.98212
thorax -9.03595 -0.928559 0.678185
lowerneck 17.6405 -9.97378 -29.467
upperneck -4.77446 -20.4867 39.6579
head 3.70754 -12.5257 19.085
rclavicle 1.82385e-014 1.59028e-015
rhumerus -52.6799 -27.6439 -58.1565
rradius 23.9927
rwrist 34.1959
rhand -1.54071 6.65058
rfingers 7.12502
rthumb 24.1138 -21.854
lclavicle 1.82385e-014 1.59028e-015
lhumerus -39.4332 -7.63295 75.3848
lradius 32.1828
lwrist 30.2757
lhand -27.388 -13.5039
lfingers 7.12502
lthumb -0.794813 16.4744
rfemur -28.1019 -0.927322 23.5702
rtibia 44.5865
rfoot -26.3352 3.9909
rtoes -27.1455
lfemur -27.4642 -0.183479 -14.3312
ltibia 35.5819
lfoot -23.603 -11.0464
ltoes -23.1724
2061
root -4.11273 15.4732 43.7806 -684.91 -81.7703 696.474
lowerback -1.17399 -1.00065 0.93316
upperback -9.15865 -1.5466 0.975711
thorax -8.96459 -0.918417 0.632523
lowerneck 17.78 -9.99773 -29.5241
upperneck -4.88322 -20.5349 39.6345
head 3.67589 -12.5587 19.0845
rclavicle 2.36057e-015 -5.1684e-015
rhumerus -52.7337 -27.6358 -58.2
rradius 23.6251
rwrist 34.5733
rhand -1.40883 6.52241
rfingers 7.12502
rthumb 24.2403 -21.9654
lclavicle 2.36057e-015 -5.1684e-015
lhumerus -39.467 -7.02853 75.1179
lradius 32.1405
lwrist 29.9973
lhand -28.1334 -13.7142
lfingers 7.12502
lthumb -1.51474 16.2602
rfemur -27.9852 -1.17147 24.2201
rtibia 43.9848
rfoot -26.7881 4.33362
rtoes -26.915
lfemur -27.6449 -0.264615 -14.4293
ltibia 35.9331
lfoot -23.784 -10.9892
ltoes -22.9703
2062
root -4.11315 15.4658 43.8197 -684.816 -81.706 696.373
lowerback -1.28439 -0.979755 0.972484
upperback -9.16197 -1.52001 0.97286
thorax -8.90432 -0.909256 0.602953
lowerneck 17.9105 -10.0164 -29.5877
upperneck -4.97856 -20.5759 39.5988
head 3.64525 -12.5857 19.0798
rclavicle -1.49089e-016 1.59028e-014
rhumerus -52.7534 -27.5808 -58.2774
rradius 23.2854
rwrist 34.9744
rhand -1.19696 6.46099
rfingers 7.12502
rthumb 24.4434 -21.9995
lclavicle -1.49089e-016 1.59028e-014
lhumerus -39.5581 -6.40886 74.8824
lradius 32.1565
lwrist 29.8533
lhand -28.8907 -13.9401
lfingers 7.12502
lthumb -2.24618 16.0279
rfemur -27.8473 -1.37965 24.8041
rtibia 43.4071
rfoot -27.1683 4.39696
rtoes -26.6371
lfemur -27.777 -0.332898 -14.5424
ltibia 36.2139
lfoot -23.9238 -10.9694
ltoes -22.7026
2063
root -4.11368 15.4606 43.8569 -684.865 -81.6556 696.415
lowerback -1.38351 -0.962679 0.993771
upperback -9.1697 -1.49989 0.960581
thorax -8.85538 -0.902318 0.574406
lowerneck 18.0315 -10.0293 -29.6463
upperneck -5.05808 -20.6089 39.5578
head 3.61577 -12.6074 19.0727
rclavicle 1.56791e-014 2.38542e-015
rhumerus -52.7526 -27.5208 -58.3738
rradius 22.9715
rwrist 35.4443
rhand -0.923163 6.45119
rfingers 7.12502
rthumb 24.7059 -21.9737
lclavicle 1.56791e-014 2.38542e-015
lhumerus -39.7002 -5.80743 74.6707
lradius 32.2261
lwrist 29.8373
lhand -29.6443 -14.1694
lfingers 7.12502
lthumb -2.97399 15.7896
rfemur -27.7033 -1.557 25.3181
rtibia 42.8654
rfoot -27.4683 4.16722
rtoes -26.3719
lfemur -27.8702 -0.375265 -14.6794
ltibia 36.4217
lfoot -24.0274 -10.9895
ltoes -22.4101
2064
root -4.11438 15.4574 43.8927 -685.015 -81.626 696.555
lowerback -1.4744 -0.946044 1.00573
upperback -9.18066 -1.48126 0.94001
thorax -8.81485 -0.895789 0.542775
lowerneck 18.1402 -10.0361 -29.708
upperneck -5.11827 -20.6358 39.5142
head 3.59119 -12.6247 19.0657
rclavicle 4.39811e-015 2.78299e-015
rhumerus -52.7269 -27.451 -58.4957
rradius 22.6856
rwrist 35.9461
rhand -0.615568 6.4874
rfingers 7.12502
rthumb 25.0006 -21.8967
lclavicle 4.39811e-015 2.78299e-015
lhumerus -39.8869 -5.21989 74.4827
lradius 32.336
lwrist 29.9327
lhand -30.358 -14.4189
lfingers 7.12502
lthumb -3.66316 15.5294
rfemur -27.5549 -1.71624 25.7615
rtibia 42.3651
rfoot -27.6715 3.6955
rtoes -26.083
lfemur -27.9238 -0.395273 -14.8391
ltibia 36.5618
lfoot -24.0967 -11.0382
ltoes -22.1002
2065
root -4.11503 15.4562 43.927 -685.245 -81.6132 696.776
lowerback -1.55751 -0.927009 1.00526
upperback -9.19548 -1.46036 0.911624
thorax -8.78307 -0.887564 0.510052
lowerneck 18.2443 -10.0406 -29.7625
upperneck -5.16683 -20.6599 39.4684
head 3.56805 -12.6401 19.0565
rclavicle -2.38045e-014 -3.97569e-015
rhumerus -52.691 -27.3886 -58.6235
rradius 22.4362
rwrist 36.5037
rhand -0.250599 6.58342
rfingers 7.12502
rthumb 25.3503 -21.7516
lclavicle -2.38045e-014 -3.97569e-015
lhumerus -40.111 -4.67253 74.3289
lradius 32.4783
lwrist 30.1301
lhand -30.9811 -14.6827
lfingers 7.12502
lthumb -4.26485 15.2544
rfemur -27.4075 -1.85493 26.1374
rtibia 41.9102
rfoot -27.7538 3.09322
rtoes -25.5861
lfemur -27.946 -0.391101 -15.0154
ltibia 36.6421
lfoot -24.1378 -11.1135
ltoes -21.7939
